<mxfile host="app.diagrams.net" agent="Mozilla/5.0 (Windows NT 10.0; Win64; x64) AppleWebKit/537.36 (KHTML, like Gecko) Chrome/135.0.0.0 Safari/537.36" version="26.2.14">
  <diagram name="Page-1" id="rb5apFXQ5YieU2KoCyxA">
    <mxGraphModel dx="1426" dy="823" grid="1" gridSize="10" guides="1" tooltips="1" connect="1" arrows="1" fold="1" page="1" pageScale="1" pageWidth="850" pageHeight="1100" math="0" shadow="0">
      <root>
        <mxCell id="0" />
        <mxCell id="1" parent="0" />
        <mxCell id="KjhTKcGqS4ddzqNYgISi-3" value="User" style="swimlane;fontStyle=0;childLayout=stackLayout;horizontal=1;startSize=30;horizontalStack=0;resizeParent=1;resizeParentMax=0;resizeLast=0;collapsible=1;marginBottom=0;whiteSpace=wrap;html=1;" parent="1" vertex="1">
          <mxGeometry x="100" y="260" width="150" height="150" as="geometry" />
        </mxCell>
        <mxCell id="KjhTKcGqS4ddzqNYgISi-4" value="ID_SISWA (PK)" style="text;strokeColor=none;fillColor=none;align=left;verticalAlign=middle;spacingLeft=4;spacingRight=4;overflow=hidden;points=[[0,0.5],[1,0.5]];portConstraint=eastwest;rotatable=0;whiteSpace=wrap;html=1;" parent="KjhTKcGqS4ddzqNYgISi-3" vertex="1">
          <mxGeometry y="30" width="150" height="30" as="geometry" />
        </mxCell>
        <mxCell id="SXe1snq6_S4BW5SzHkmH-20" value="Username" style="text;strokeColor=none;fillColor=none;align=left;verticalAlign=middle;spacingLeft=4;spacingRight=4;overflow=hidden;points=[[0,0.5],[1,0.5]];portConstraint=eastwest;rotatable=0;whiteSpace=wrap;html=1;" parent="KjhTKcGqS4ddzqNYgISi-3" vertex="1">
          <mxGeometry y="60" width="150" height="30" as="geometry" />
        </mxCell>
        <mxCell id="KjhTKcGqS4ddzqNYgISi-5" value="Nama" style="text;strokeColor=none;fillColor=none;align=left;verticalAlign=middle;spacingLeft=4;spacingRight=4;overflow=hidden;points=[[0,0.5],[1,0.5]];portConstraint=eastwest;rotatable=0;whiteSpace=wrap;html=1;" parent="KjhTKcGqS4ddzqNYgISi-3" vertex="1">
          <mxGeometry y="90" width="150" height="30" as="geometry" />
        </mxCell>
        <mxCell id="SXe1snq6_S4BW5SzHkmH-7" value="Password" style="text;strokeColor=none;fillColor=none;align=left;verticalAlign=middle;spacingLeft=4;spacingRight=4;overflow=hidden;points=[[0,0.5],[1,0.5]];portConstraint=eastwest;rotatable=0;whiteSpace=wrap;html=1;" parent="KjhTKcGqS4ddzqNYgISi-3" vertex="1">
          <mxGeometry y="120" width="150" height="30" as="geometry" />
        </mxCell>
        <mxCell id="wXxsvhS1gCDLAHb_Y9AA-6" value="Laporan" style="swimlane;fontStyle=0;childLayout=stackLayout;horizontal=1;startSize=30;horizontalStack=0;resizeParent=1;resizeParentMax=0;resizeLast=0;collapsible=1;marginBottom=0;whiteSpace=wrap;html=1;" parent="1" vertex="1">
          <mxGeometry x="300" y="480" width="240" height="270" as="geometry" />
        </mxCell>
        <mxCell id="wXxsvhS1gCDLAHb_Y9AA-7" value="ID_LAPORAN(PK)" style="text;strokeColor=none;fillColor=none;align=left;verticalAlign=middle;spacingLeft=4;spacingRight=4;overflow=hidden;points=[[0,0.5],[1,0.5]];portConstraint=eastwest;rotatable=0;whiteSpace=wrap;html=1;" parent="wXxsvhS1gCDLAHb_Y9AA-6" vertex="1">
          <mxGeometry y="30" width="240" height="30" as="geometry" />
        </mxCell>
        <mxCell id="wXxsvhS1gCDLAHb_Y9AA-8" value="Judul" style="text;strokeColor=none;fillColor=none;align=left;verticalAlign=middle;spacingLeft=4;spacingRight=4;overflow=hidden;points=[[0,0.5],[1,0.5]];portConstraint=eastwest;rotatable=0;whiteSpace=wrap;html=1;" parent="wXxsvhS1gCDLAHb_Y9AA-6" vertex="1">
          <mxGeometry y="60" width="240" height="30" as="geometry" />
        </mxCell>
        <mxCell id="wXxsvhS1gCDLAHb_Y9AA-9" value="Isi_laporan" style="text;strokeColor=none;fillColor=none;align=left;verticalAlign=middle;spacingLeft=4;spacingRight=4;overflow=hidden;points=[[0,0.5],[1,0.5]];portConstraint=eastwest;rotatable=0;whiteSpace=wrap;html=1;" parent="wXxsvhS1gCDLAHb_Y9AA-6" vertex="1">
          <mxGeometry y="90" width="240" height="30" as="geometry" />
        </mxCell>
        <mxCell id="SXe1snq6_S4BW5SzHkmH-23" value="Nama_pelaku" style="text;strokeColor=none;fillColor=none;align=left;verticalAlign=middle;spacingLeft=4;spacingRight=4;overflow=hidden;points=[[0,0.5],[1,0.5]];portConstraint=eastwest;rotatable=0;whiteSpace=wrap;html=1;" parent="wXxsvhS1gCDLAHb_Y9AA-6" vertex="1">
          <mxGeometry y="120" width="240" height="30" as="geometry" />
        </mxCell>
        <mxCell id="SXe1snq6_S4BW5SzHkmH-22" value="Kelas_pelaku" style="text;strokeColor=none;fillColor=none;align=left;verticalAlign=middle;spacingLeft=4;spacingRight=4;overflow=hidden;points=[[0,0.5],[1,0.5]];portConstraint=eastwest;rotatable=0;whiteSpace=wrap;html=1;" parent="wXxsvhS1gCDLAHb_Y9AA-6" vertex="1">
          <mxGeometry y="150" width="240" height="30" as="geometry" />
        </mxCell>
        <mxCell id="SXe1snq6_S4BW5SzHkmH-21" value="Jurusan_pelaku" style="text;strokeColor=none;fillColor=none;align=left;verticalAlign=middle;spacingLeft=4;spacingRight=4;overflow=hidden;points=[[0,0.5],[1,0.5]];portConstraint=eastwest;rotatable=0;whiteSpace=wrap;html=1;" parent="wXxsvhS1gCDLAHb_Y9AA-6" vertex="1">
          <mxGeometry y="180" width="240" height="30" as="geometry" />
        </mxCell>
        <mxCell id="wXxsvhS1gCDLAHb_Y9AA-12" value="Peran (enum: saksi/korban)" style="text;strokeColor=none;fillColor=none;align=left;verticalAlign=middle;spacingLeft=4;spacingRight=4;overflow=hidden;points=[[0,0.5],[1,0.5]];portConstraint=eastwest;rotatable=0;whiteSpace=wrap;html=1;" parent="wXxsvhS1gCDLAHb_Y9AA-6" vertex="1">
          <mxGeometry y="210" width="240" height="20" as="geometry" />
        </mxCell>
        <mxCell id="SXe1snq6_S4BW5SzHkmH-19" value="Status (enum: pending, proses , selesai)" style="text;strokeColor=none;fillColor=none;align=left;verticalAlign=middle;spacingLeft=4;spacingRight=4;overflow=hidden;points=[[0,0.5],[1,0.5]];portConstraint=eastwest;rotatable=0;whiteSpace=wrap;html=1;" parent="wXxsvhS1gCDLAHb_Y9AA-6" vertex="1">
          <mxGeometry y="230" width="240" height="20" as="geometry" />
        </mxCell>
        <mxCell id="SXe1snq6_S4BW5SzHkmH-8" style="text;strokeColor=none;fillColor=none;align=left;verticalAlign=middle;spacingLeft=4;spacingRight=4;overflow=hidden;points=[[0,0.5],[1,0.5]];portConstraint=eastwest;rotatable=0;whiteSpace=wrap;html=1;" parent="wXxsvhS1gCDLAHb_Y9AA-6" vertex="1">
          <mxGeometry y="250" width="240" as="geometry" />
        </mxCell>
        <mxCell id="wXxsvhS1gCDLAHb_Y9AA-11" value="ID_Kategori (FK)" style="text;strokeColor=none;fillColor=none;align=left;verticalAlign=middle;spacingLeft=4;spacingRight=4;overflow=hidden;points=[[0,0.5],[1,0.5]];portConstraint=eastwest;rotatable=0;whiteSpace=wrap;html=1;" parent="wXxsvhS1gCDLAHb_Y9AA-6" vertex="1">
          <mxGeometry y="250" width="240" height="20" as="geometry" />
        </mxCell>
        <mxCell id="wXxsvhS1gCDLAHb_Y9AA-47" style="text;strokeColor=none;fillColor=none;align=left;verticalAlign=middle;spacingLeft=4;spacingRight=4;overflow=hidden;points=[[0,0.5],[1,0.5]];portConstraint=eastwest;rotatable=0;whiteSpace=wrap;html=1;" parent="wXxsvhS1gCDLAHb_Y9AA-6" vertex="1">
          <mxGeometry y="270" width="240" as="geometry" />
        </mxCell>
        <mxCell id="wXxsvhS1gCDLAHb_Y9AA-48" style="text;strokeColor=none;fillColor=none;align=left;verticalAlign=middle;spacingLeft=4;spacingRight=4;overflow=hidden;points=[[0,0.5],[1,0.5]];portConstraint=eastwest;rotatable=0;whiteSpace=wrap;html=1;" parent="wXxsvhS1gCDLAHb_Y9AA-6" vertex="1">
          <mxGeometry y="270" width="240" as="geometry" />
        </mxCell>
        <mxCell id="wXxsvhS1gCDLAHb_Y9AA-49" style="text;strokeColor=none;fillColor=none;align=left;verticalAlign=middle;spacingLeft=4;spacingRight=4;overflow=hidden;points=[[0,0.5],[1,0.5]];portConstraint=eastwest;rotatable=0;whiteSpace=wrap;html=1;" parent="wXxsvhS1gCDLAHb_Y9AA-6" vertex="1">
          <mxGeometry y="270" width="240" as="geometry" />
        </mxCell>
        <mxCell id="wXxsvhS1gCDLAHb_Y9AA-50" style="text;strokeColor=none;fillColor=none;align=left;verticalAlign=middle;spacingLeft=4;spacingRight=4;overflow=hidden;points=[[0,0.5],[1,0.5]];portConstraint=eastwest;rotatable=0;whiteSpace=wrap;html=1;" parent="wXxsvhS1gCDLAHb_Y9AA-6" vertex="1">
          <mxGeometry y="270" width="240" as="geometry" />
        </mxCell>
        <mxCell id="wXxsvhS1gCDLAHb_Y9AA-51" style="text;strokeColor=none;fillColor=none;align=left;verticalAlign=middle;spacingLeft=4;spacingRight=4;overflow=hidden;points=[[0,0.5],[1,0.5]];portConstraint=eastwest;rotatable=0;whiteSpace=wrap;html=1;" parent="wXxsvhS1gCDLAHb_Y9AA-6" vertex="1">
          <mxGeometry y="270" width="240" as="geometry" />
        </mxCell>
        <mxCell id="wXxsvhS1gCDLAHb_Y9AA-52" style="text;strokeColor=none;fillColor=none;align=left;verticalAlign=middle;spacingLeft=4;spacingRight=4;overflow=hidden;points=[[0,0.5],[1,0.5]];portConstraint=eastwest;rotatable=0;whiteSpace=wrap;html=1;" parent="wXxsvhS1gCDLAHb_Y9AA-6" vertex="1">
          <mxGeometry y="270" width="240" as="geometry" />
        </mxCell>
        <mxCell id="wXxsvhS1gCDLAHb_Y9AA-53" style="text;strokeColor=none;fillColor=none;align=left;verticalAlign=middle;spacingLeft=4;spacingRight=4;overflow=hidden;points=[[0,0.5],[1,0.5]];portConstraint=eastwest;rotatable=0;whiteSpace=wrap;html=1;" parent="wXxsvhS1gCDLAHb_Y9AA-6" vertex="1">
          <mxGeometry y="270" width="240" as="geometry" />
        </mxCell>
        <mxCell id="wXxsvhS1gCDLAHb_Y9AA-54" style="text;strokeColor=none;fillColor=none;align=left;verticalAlign=middle;spacingLeft=4;spacingRight=4;overflow=hidden;points=[[0,0.5],[1,0.5]];portConstraint=eastwest;rotatable=0;whiteSpace=wrap;html=1;" parent="wXxsvhS1gCDLAHb_Y9AA-6" vertex="1">
          <mxGeometry y="270" width="240" as="geometry" />
        </mxCell>
        <mxCell id="wXxsvhS1gCDLAHb_Y9AA-29" value="Admin" style="swimlane;fontStyle=0;childLayout=stackLayout;horizontal=1;startSize=26;horizontalStack=0;resizeParent=1;resizeParentMax=0;resizeLast=0;collapsible=1;marginBottom=0;align=center;fontSize=14;" parent="1" vertex="1">
          <mxGeometry x="400" y="240" width="160" height="116" as="geometry" />
        </mxCell>
        <mxCell id="wXxsvhS1gCDLAHb_Y9AA-30" value="ID_ADMIN (PK)" style="text;strokeColor=none;fillColor=none;spacingLeft=4;spacingRight=4;overflow=hidden;rotatable=0;points=[[0,0.5],[1,0.5]];portConstraint=eastwest;fontSize=12;whiteSpace=wrap;html=1;" parent="wXxsvhS1gCDLAHb_Y9AA-29" vertex="1">
          <mxGeometry y="26" width="160" height="30" as="geometry" />
        </mxCell>
        <mxCell id="wXxsvhS1gCDLAHb_Y9AA-31" value="Nama_admin" style="text;strokeColor=none;fillColor=none;spacingLeft=4;spacingRight=4;overflow=hidden;rotatable=0;points=[[0,0.5],[1,0.5]];portConstraint=eastwest;fontSize=12;whiteSpace=wrap;html=1;" parent="wXxsvhS1gCDLAHb_Y9AA-29" vertex="1">
          <mxGeometry y="56" width="160" height="30" as="geometry" />
        </mxCell>
        <mxCell id="wXxsvhS1gCDLAHb_Y9AA-32" value="Password" style="text;strokeColor=none;fillColor=none;spacingLeft=4;spacingRight=4;overflow=hidden;rotatable=0;points=[[0,0.5],[1,0.5]];portConstraint=eastwest;fontSize=12;whiteSpace=wrap;html=1;" parent="wXxsvhS1gCDLAHb_Y9AA-29" vertex="1">
          <mxGeometry y="86" width="160" height="30" as="geometry" />
        </mxCell>
        <mxCell id="wXxsvhS1gCDLAHb_Y9AA-5" value="" style="edgeStyle=entityRelationEdgeStyle;fontSize=12;html=1;endArrow=ERoneToMany;rounded=0;exitX=1;exitY=0.5;exitDx=0;exitDy=0;entryX=0;entryY=0.5;entryDx=0;entryDy=0;" parent="1" source="KjhTKcGqS4ddzqNYgISi-4" target="wXxsvhS1gCDLAHb_Y9AA-7" edge="1">
          <mxGeometry width="100" height="100" relative="1" as="geometry">
            <mxPoint x="260" y="315" as="sourcePoint" />
            <mxPoint x="350" y="230" as="targetPoint" />
          </mxGeometry>
        </mxCell>
        <mxCell id="SXe1snq6_S4BW5SzHkmH-3" value="Kategori" style="swimlane;fontStyle=0;childLayout=stackLayout;horizontal=1;startSize=26;horizontalStack=0;resizeParent=1;resizeParentMax=0;resizeLast=0;collapsible=1;marginBottom=0;align=center;fontSize=14;" parent="1" vertex="1">
          <mxGeometry x="560" y="810" width="230" height="176" as="geometry" />
        </mxCell>
        <mxCell id="SXe1snq6_S4BW5SzHkmH-4" value="ID_Kategori (PK)" style="text;strokeColor=none;fillColor=none;spacingLeft=4;spacingRight=4;overflow=hidden;rotatable=0;points=[[0,0.5],[1,0.5]];portConstraint=eastwest;fontSize=12;whiteSpace=wrap;html=1;" parent="SXe1snq6_S4BW5SzHkmH-3" vertex="1">
          <mxGeometry y="26" width="230" height="30" as="geometry" />
        </mxCell>
        <mxCell id="SXe1snq6_S4BW5SzHkmH-5" value="Anonymus atau tidak anonymus" style="text;strokeColor=none;fillColor=none;spacingLeft=4;spacingRight=4;overflow=hidden;rotatable=0;points=[[0,0.5],[1,0.5]];portConstraint=eastwest;fontSize=12;whiteSpace=wrap;html=1;" parent="SXe1snq6_S4BW5SzHkmH-3" vertex="1">
          <mxGeometry y="56" width="230" height="30" as="geometry" />
        </mxCell>
        <mxCell id="bZKseno9ytQS_6grhv9h-1" value="Nama" style="text;strokeColor=none;fillColor=none;spacingLeft=4;spacingRight=4;overflow=hidden;rotatable=0;points=[[0,0.5],[1,0.5]];portConstraint=eastwest;fontSize=12;whiteSpace=wrap;html=1;" vertex="1" parent="SXe1snq6_S4BW5SzHkmH-3">
          <mxGeometry y="86" width="230" height="30" as="geometry" />
        </mxCell>
        <mxCell id="SXe1snq6_S4BW5SzHkmH-9" value="Kelas" style="text;strokeColor=none;fillColor=none;spacingLeft=4;spacingRight=4;overflow=hidden;rotatable=0;points=[[0,0.5],[1,0.5]];portConstraint=eastwest;fontSize=12;whiteSpace=wrap;html=1;" parent="SXe1snq6_S4BW5SzHkmH-3" vertex="1">
          <mxGeometry y="116" width="230" height="30" as="geometry" />
        </mxCell>
        <mxCell id="SXe1snq6_S4BW5SzHkmH-6" value="Jurusan" style="text;strokeColor=none;fillColor=none;spacingLeft=4;spacingRight=4;overflow=hidden;rotatable=0;points=[[0,0.5],[1,0.5]];portConstraint=eastwest;fontSize=12;whiteSpace=wrap;html=1;" parent="SXe1snq6_S4BW5SzHkmH-3" vertex="1">
          <mxGeometry y="146" width="230" height="30" as="geometry" />
        </mxCell>
        <mxCell id="SXe1snq6_S4BW5SzHkmH-16" value="" style="edgeStyle=entityRelationEdgeStyle;fontSize=12;html=1;endArrow=ERoneToMany;rounded=0;entryX=1;entryY=0.5;entryDx=0;entryDy=0;" parent="1" target="wXxsvhS1gCDLAHb_Y9AA-7" edge="1">
          <mxGeometry width="100" height="100" relative="1" as="geometry">
            <mxPoint x="560" y="280" as="sourcePoint" />
            <mxPoint x="580" y="490" as="targetPoint" />
            <Array as="points">
              <mxPoint x="630" y="470" />
              <mxPoint x="700" y="450" />
              <mxPoint x="630" y="450" />
            </Array>
          </mxGeometry>
        </mxCell>
        <mxCell id="SXe1snq6_S4BW5SzHkmH-18" value="" style="edgeStyle=entityRelationEdgeStyle;fontSize=12;html=1;endArrow=ERoneToMany;rounded=0;exitX=1;exitY=0.5;exitDx=0;exitDy=0;entryX=1.013;entryY=0.096;entryDx=0;entryDy=0;entryPerimeter=0;" parent="1" source="wXxsvhS1gCDLAHb_Y9AA-7" target="SXe1snq6_S4BW5SzHkmH-3" edge="1">
          <mxGeometry width="100" height="100" relative="1" as="geometry">
            <mxPoint x="640" y="484" as="sourcePoint" />
            <mxPoint x="730" y="810" as="targetPoint" />
            <Array as="points">
              <mxPoint x="710" y="740" />
            </Array>
          </mxGeometry>
        </mxCell>
      </root>
    </mxGraphModel>
  </diagram>
</mxfile>
